<?xml version="1.0" encoding="utf-8"?>
<!-- Generator: Adobe Illustrator 24.3.0, SVG Export Plug-In . SVG Version: 6.00 Build 0)  -->
<svg version="1.1" id="圖層_1" xmlns="http://www.w3.org/2000/svg" xmlns:xlink="http://www.w3.org/1999/xlink" x="0px" y="0px"
	 viewBox="0 0 436 62" style="enable-background:new 0 0 436 62;" xml:space="preserve">
<style type="text/css">
	.st0{fill-rule:evenodd;clip-rule:evenodd;}
	.st1{fill-rule:evenodd;clip-rule:evenodd;fill:#A1CC56;}
</style>
<polygon points="32.02,20.53 0.22,20.53 0.22,25.95 11.5,25.95 11.5,42.32 20.67,42.32 20.67,25.95 32.02,25.95 "/>
<path class="st0" d="M48.72,30.73h10.5v-4.77h-15.4v4.77H48.72L48.72,30.73z M43.81,35.36v6.95h-8.32l0.07-5.73V26.25
	c0-1.59,0.56-2.94,1.67-4.06c1.14-1.11,2.49-1.67,4.06-1.67l15.34-0.03l5.11,0.03c1.57,0,2.91,0.56,4.02,1.67
	c1.14,1.11,1.7,2.47,1.7,4.06v10.33l-0.07,5.73h-8.18v-6.95L43.81,35.36L43.81,35.36z"/>
<path d="M105.84,20.53H71.11v21.78h8.25V25.95h7.84v16.36h8.25V25.95h7.84v16.36h8.25V26.25c0-1.59-0.56-2.94-1.67-4.06
	C108.74,21.09,107.4,20.53,105.84,20.53L105.84,20.53z"/>
<path d="M123.22,28.95l22.22,0.1v4.64l-22.22-0.11v3.31h15.57l8.15-0.03l0.1,5.45H120.7c-1.57,0-2.92-0.56-4.06-1.67
	c-1.11-1.11-1.67-2.46-1.67-4.06V26.25c0-1.59,0.56-2.94,1.67-4.06c1.14-1.11,2.49-1.67,4.06-1.67h26.34l-0.1,5.42h-23.72V28.95
	L123.22,28.95z"/>
<path d="M173.66,33.58h-17.04c-1.86-0.27-3.37-0.93-4.53-1.98c-1.14-1.05-1.7-2.35-1.7-3.92v-1.47c0-1.57,0.59-2.91,1.77-4.02
	c1.18-1.11,2.64-1.67,4.36-1.67l26.14-0.03v5.18h-23.38v3.14h17.01c1.86,0.18,3.39,0.7,4.57,1.57c1.2,0.86,1.81,2.08,1.81,3.65v2.56
	c0,1.59-0.61,2.94-1.84,4.06c-1.23,1.11-2.69,1.67-4.4,1.67h-26.07v-5.18l23.31,0.1v-3.66H173.66z"/>
<path d="M289.54,42.18h-34.73V20.41h8.25v16.36h7.84V20.41h8.25v16.36h7.84V20.41h8.25v16.05c0,1.59-0.56,2.94-1.67,4.06
	C292.45,41.62,291.11,42.18,289.54,42.18L289.54,42.18z"/>
<path class="st0" d="M311.83,30.59h10.5v-4.77h-15.4v4.77H311.83L311.83,30.59z M306.92,35.22v6.95h-8.32l0.07-5.73V26.12
	c0-1.59,0.56-2.94,1.67-4.06c1.14-1.11,2.49-1.67,4.06-1.67l15.33-0.03l5.11,0.03c1.57,0,2.91,0.56,4.02,1.67
	c1.14,1.11,1.7,2.47,1.7,4.06v10.33l-0.07,5.73h-8.18v-6.95h-15.39V35.22z"/>
<polygon points="366.25,20.41 334.46,20.41 334.46,25.82 345.74,25.82 345.74,42.18 354.9,42.18 354.9,25.82 366.25,25.82 "/>
<path d="M378.04,36.75h15.57l8.15-0.03v5.45h-26.24c-1.57,0-2.92-0.56-4.06-1.67c-1.11-1.11-1.67-2.46-1.67-4.06V26.12
	c0-1.59,0.56-2.94,1.67-4.06c1.14-1.11,2.49-1.67,4.06-1.67h26.34l-0.03,5.42h-23.79L378.04,36.75L378.04,36.75z"/>
<polygon points="427.6,20.41 427.6,29.3 413.52,29.3 413.52,20.41 405.38,20.41 405.38,42.18 413.52,42.18 413.52,34.38 
	427.6,34.38 427.6,42.18 435.78,42.18 435.78,20.41 "/>
<path class="st1" d="M197.92,31c0-11.68,9.47-21.15,21.15-21.15c11.68,0,21.15,9.47,21.15,21.15s-9.47,21.15-21.15,21.15
	S197.92,42.68,197.92,31L197.92,31z M188.44,31c0-16.92,13.72-30.64,30.64-30.64S249.72,14.09,249.72,31S236,61.64,219.08,61.64
	C202.16,61.64,188.44,47.93,188.44,31L188.44,31z"/>
</svg>
